# xmcd CD database file
#
# Track frame offsets:
#	187
#	28837
#	52010
#	70237
#	99187
#	140062
#	152287
#	173737
#	183637
#
# Disc length: 2671 seconds
#
# Revision: 4
# Processed by: cddbd v1.5.1PL2 Copyright (c) Steve Scherf et al.
# Submitted via: CDex 1.51
#
DISCID=760a6d09
DTITLE=Chick Corea - CRYSTAL SILENCE
DYEAR=1972
DGENRE=Jazz
TTITLE0=Senor Mouse
TTITLE1=Arise, Her Eyes
TTITLE2=I'm Your Pal
TTITLE3=Desert Air
TTITLE4=Crystal Silence
TTITLE5=Falling Grace
TTITLE6=Feelings And Things
TTITLE7=Children's Song
TTITLE8=What Game Shall We Play Today
EXTD=YEAR: 1972
EXTT0=
EXTT1=
EXTT2=
EXTT3=
EXTT4=
EXTT5=
EXTT6=
EXTT7=
EXTT8=
PLAYORDER=
